<svg xmlns="http://www.w3.org/2000/svg" width="1168" height="607"><clipPath id="a"><path d="M0 0h1168v607H0z"/></clipPath><g clip-path="url(#a)"><path fill="#0f3679" d="M608.6527 214.051c7.9052 6.3114 26.4615 27.1427 35.1397 35.6777 28.1391 27.6709 57.0019 59.7311 85.8831 86.3025 15.797-15.3523 35.237-34.4673 50.0678-50.5892 9.3033 7.7187 25.0769 24.0572 34.4997 33.2053l68.9576 67.3562c3.7784-3.6493 8.1107-7.4231 12.0246-10.9838 44.0985 41.941 82.6216 67.1961 138.4 92.3011 10.2155 4.5987 20.7878 8.6926 31.1385 13.0117 4.3324 1.8124 7.9139 1.9232 12.1354 3.9696-.6154.16-129.6247-12.6978-145.3785-13.6803l.0246-37.58c-9.9323-6.134-24.4308-12.4552-35.2862-17.3715l.0985 51.8118c-10.0185-.2069-18.9416-.953-29.2677-.921-1.2062-24.3982-1.1323-53.4641-1.5385-78.0544-6.0234-7.2286-19.28-19.8538-26.3052-26.974a2995 2995 0 0 0-58.57-58.1515c-3.3882 6.9036-8.1304 14.9214-11.0892 21.4273 2.8924.6833 5.0967.5996 8.0456.6685l.341.9148a441.6 441.6 0 0 1-15.306 16.8188c7.8154-.138 13.1262.0283 20.922.6304-5.3109 14.4978-.3742 41.8597 1.3648 58.6464 3.6382-9.7342 6.6819-21.1145 9.6173-31.191 8.6683 3.1187 20.6166 9.8598 28.7015 14.2725.144 26.1553 1.0253 52.1553.9859 78.318-26.9527-.314-53.941-1.8863-81.0487-2.1178-.0997-31.1725-1.1446-62.489-.981-93.4966-31.92-34.561-66.4738-67.318-98.8381-101.5232-10.752-11.363-21.6874-22.8358-32.8062-33.8283-6.5083 11.1784-13.4363 22.7755-21.3354 33.0354a713 713 0 0 1 19.557-1.9675c-11.5791 12.3555-24.4272 23.5216-36.1232 36.3991l35.6677-1.3272c-20.4418 16.139-40.9612 35.2282-60.6917 52.3757-10.2301 8.8908-19.467 19.4191-30.3742 27.6733 20.266-9.8979 57.8069-24.2148 79.5681-32.6044-.181 15.5838-.6437 34.024.0566 49.4601.5096 20.1222 1.0105 43.1267.741 63.2796-12.037-.0382-25.301-.405-37.194.5873-25.84-.6907-56.1095.3004-82.2277.5688l-.1292-43.906c-10.5428-5.2475-29.4979-13.2247-40.5317-17.4947l-.053 62.8758c-12.1624-.1601-26.6621.9308-39.5852.9616l-.0074-89.2095c14.1305 3.8427 32.4739 11.6007 47.0474 16.5503-6.4517-10.1257-27.92-33.3679-36.6006-42.8336-9.9459-10.846-25.7194-29.4562-36.0751-38.8764a1641 1641 0 0 1-12.1293 24.5644c3.3145-1.3112 7.9717-2.6508 11.4708-3.7626-7.7083 8.9326-14.1698 17.9551-21.6221 26.969a760 760 0 0 1 23.2652-4.8412c-4.5415 5.511-12.1612 11.6956-17.7268 16.5331a4757 4757 0 0 1 .2179 97.0303c-79.738 3.6162-158.6266 7.8455-237.962 16.8693-7.3256.8335-23.8363 4.302-29.8782 3.653l.7237-.7005c5.2394-.857 9.552-2.231 14.5575-3.9597 72.97-25.1949 143.4315-64.4616 198.911-118.6103 15.0141-14.653 29.0744-29.8723 43.9397-44.5647 8.4578-8.3614 17.867-19.2664 26.9157-26.6243 24.2104 25.574 49.637 55.3787 74.939 79.6353z"/><defs><linearGradient id="b" x1="771.1006" x2="769.3724" y1="451.1956" y2="500.812" gradientUnits="userSpaceOnUse"><stop offset="0" stop-color="#c8eef3"/><stop offset="1" stop-color="#f5f8f8"/></linearGradient></defs><path fill="url(#b)" d="M755.265 450.774c9.908.139 19.818.081 29.724-.175.414 16.343.821 35.027.602 51.395-9.78-.031-20.557-.329-30.22.477.056-17.233.02-34.465-.106-51.697" transform="matrix(1.23077 0 0 1.23124 -369.231 -158.83)"/><path fill="#0f3679" d="M397.8735 488.2396c30.341-1.6179 106.4702-7.6436 107.9422 34.4784 1.7723 50.663-.0062 67.8191-55.584 69.7152-29.6579-.5392-102.618 9.9768-104.6647-33.891-2.3816-51.0276-2.0665-65.4146 52.3065-70.3026m51.269 85.5207c6.9058-1.3716 12.5932-1.9959 17.0043-8.4045 5.5224-8.024 3.2024-35.5902 2.64-45.945-3.6788-5.8877-7.7317-9.9779-14.8936-11.0663-11.5938-1.7595-36.4812-1.6339-48.3053-.8582-23.8646 1.8678-21.4941 7.0932-22.8701 27.1796-2.9182 42.612 11.0523 39.5228 47.5397 39.1608 5.195-.0504 13.189-.139 18.885-.0664M526.1579 490.5863l3.6123-.043 73.6874.0282c7.5336.0111 48.1551-1.23 52.0591 3.658 8.0566 10.0888 9.045 43.5909-1.7748 53.2696-8.2941 7.4195-17.2233 6.7928-27.664 6.7263a3251 3251 0 0 0-63.0425.1638l-.096 36.8473-36.8012.0394c-.4542-33.1844-.0013-67.4203.0197-100.6896m102.4948 43.1094c3.1065-5.7954 4.4074-17.5907-.789-22.5083-7.7329-3.759-52.7495-2.0168-64.9969-1.9244l-.176 25.6615c11.3883.0579 58.485 1.4873 65.9619-1.2288M678.569 490.5863c39.818-1.1204 86.4912-.4605 126.538-.0419.1563 5.4938 1.1138 12.9527-2.24 17.1327-6.8173 2.4785-75.3109 1.6758-87.6124 1.8075l-.0505 21.719c27.1274.4458 54.2598.5283 81.3884.2463.475 15.4312-.08 20.867-18.4037 19.4733-7.7415-.5885-16.6659-.506-24.496-.4925l-38.4505.0074-.0259 22.2202c11.045.021 89.338-1.9257 93.4524 2.3467 2.6019 2.7014 1.5865 12.566 1.5643 16.2832-43.7563-.0443-88.0136-.4199-131.7318.1133z"/><path fill="#e6e5e5" d="M156.5441 184.1984c5.755-1.0675 59.2813-1.0663 62.7336.6095.4 3.0103.2818 3.7121-.1243 6.7398-5.573 2.1953-32.6376.7252-40.2056.5159 25.6677 14.4658 17.067 41.9778-2.7237 57.6872-16.4074 10.9605-41.0868 16.0665-58.0973 3.5928-6.3778-4.6147-10.6227-11.6118-11.7698-19.4031-3.6923-24.2062 19.0523-44.987 41.2739-48.4789a302 302 0 0 1 8.9132-1.2632m-10.1095 70.1191c33.4683-5.6859 39.547-58.873 11.6307-61.8772-30.3545 2.9119-46.8702 54.0108-11.6307 61.8772M1011.2006 180.4283c8.0123-1.4233 22.9293.0308 28.8862 5.5295 30.4493 28.0945-15.6308 77.9006-49.1077 64.155-3.6431-1.496-6.8185-4.276-9.7231-6.6364-3.8154 10.59-7.643 18.4933-15.7908 26.2882-5.7477 4.3008-31.5692 18.6004-36.4554 11.3558 49.3785-4.675 14.72-89.1332 82.1908-100.692m-7.0277 66.796c21.157-6.9737 29.1693-30.0484 24.9354-51.5064-1.5754-8.0056-9.28-10.3745-16.7754-9.882-28.5415 10.5493-38.917 62.8635-8.16 61.3884"/><path fill="#fea201" d="M572.7536 25.1259c12.8972-.4531 18.7803 4.1985 22.496 16.3422 63.6345 11.0689 119.7478 80.0959 155.994 128.8222l-8.8838 4.659c-29.7821-41.3844-71.824-88.8906-117.5816-111.8249-10.1809-5.1035-20.0554-8.1176-30.939-11.3693-3.146 3.3145-5.7071 5.1552-9.3256 7.9157-10.3877 3.509-18.6363 1.3211-25.1299-7.518-8.16 2.3578-16.6547 4.4793-24.427 8.1176-39.3318 18.412-71.3921 52.9396-97.5521 86.8357-7.3108 9.4731-13.685 19.1137-21.0413 28.6041l-9.0486-4.8843C440.895 121.0136 495.652 54.2496 557.22 42.0037c1.0216-10.3806 6.432-13.8428 15.5336-16.8778m6.496 28.9267c3.701-1.2288 6.453-4.3573 7.2012-8.1853.7483-3.8291-.6215-7.7642-3.5864-10.2993-2.9637-2.5339-7.0634-3.2726-10.725-1.9343-5.5483 2.0267-8.4418 8.1336-6.4984 13.7148 1.9434 5.58 8.0037 8.5658 13.6086 6.7041"/><defs><linearGradient id="c" x1="768.4893" x2="765.9578" y1="216.4802" y2="289.1598" gradientUnits="userSpaceOnUse"><stop offset="0" stop-color="#007bce"/><stop offset="1" stop-color="#3ccfe6"/></linearGradient></defs><path fill="url(#c)" d="m751.528 216.127 31.768-.061c-.043 22.527.798 49.448-.12 71.304-2.061 2.022-4.689 4.763-6.787 6.628-8.039 8.35-16.214 16.569-24.522 24.652-.273-9.239-.112-18.823-.078-28.091z" transform="matrix(1.23077 0 0 1.23124 -369.231 -158.83)"/><path fill="#40cee3" d="M556.0483 198.9179c1.2124-2.7162 1.6345-4.771 2.16-7.662 6.7176-1.5428 24.5367-.66 29.9668 3.5607-.3064 4.2909-1.803 5.8213-1.8498 8.3355a1309 1309 0 0 1-30.181 30.3525c-.336-11.3754-.1378-23.1756-.096-34.5867"/><path fill="#0f3679" d="M664.8127 343.1823c10.3816 4.1505 24.8037 11.9762 34.976 17.172l1.0216 100.287c-10.9933.4531-23.8277.192-34.9637.2438-.1625-39.3258-1.0831-78.1702-1.0339-117.7028"/><path fill="#fea201" d="M385.812 202.3629c2.6904 1.3482 6.8012 3.5718 9.5113 4.5248a1381.6 1381.6 0 0 1-61.3674 82.4438c-7.4646 9.3587-18.4394 20.9336-25.1126 30.0595-10.1231 13.8465 4.112 26.2525-24.3077 26.3756-64.4862 57.217-121.8746 102.1856-204.703 131.1628l-5.7095-.8767c87.4155-34.748 133.7084-73.718 202.2906-135.3785 2.1932-5.1441-3.893-18.1029 5.5028-22.1204 4.6166-1.9737 9.5877-2.0624 14.4012-1.033l1.216.2487c29.8228-33.289 63.989-77.3342 88.2782-115.4066m-93.0007 135.3453a7.001 7.001 0 0 0 4.4997-5.4643 7.009 7.009 0 0 0-2.56-6.6007 7 7 0 0 0-7.0068-.9948c-3.5311 1.448-5.253 5.4593-3.872 9.0188 1.3809 3.5595 5.3563 5.3572 8.939 4.041"/><defs><linearGradient id="d" x1="724.3247" x2="724.6779" y1="270.7585" y2="357.0312" gradientUnits="userSpaceOnUse"><stop offset="0" stop-color="#16a2da"/><stop offset="1" stop-color="#64f5e8"/></linearGradient></defs><path fill="url(#d)" d="m708.988 269.386 31.311-.02c.461 19.445.093 40.264.24 59.85l-14.307 14.303c-5.66 5.824-10.606 10.926-16.688 16.282-1.458-27.415-.584-62.712-.556-90.415" transform="matrix(1.23077 0 0 1.23124 -369.231 -158.83)"/><path fill="#40cee3" d="M453.028 219.4857c10.805-.266 26.1834-.4334 36.997.1367.0172 16.8766.5624 36.8375-.0468 53.4555.4923 6.6881.1723 17.9601.2006 25.0003-11.7477 10.4779-25.4474 25.0705-36.72 36.5112l-.4382-76.0881z"/><path fill="#1da4da" d="M453.028 219.4857c10.805-.266 26.1834-.4334 36.997.1367.0172 16.8766.5624 36.8375-.0468 53.4555-1.5607-4.6184-.7287-9.2072-2.6794-14.28-5.5483-4.6515-20.5404-3.7269-27.7834-3.3846-4.4911.213-4.2868.4531-6.4948 3.088z"/><path fill="#36973d" d="M527.9437 609.9698c47.5927-3.839 53.6419 44.4933 12.7976 51.3366-10.1933.426-20.3582.4592-29.2062-5.4052-5.8142-3.8378-9.819-9.877-11.0979-16.7289-3.5237-18.3996 11.8979-26.841 27.5065-29.2025m9.4019 41.5186c19.7452-6.3729 16.4061-33.1154-6.3619-31.4741-5.3255 1.5513-8.507 2.5966-11.2874 8.0633a16.1 16.1 0 0 0-.5575 13.0869c3.3108 8.5805 9.7994 10.4594 18.2068 10.324"/><defs><linearGradient id="e" x1="810.8059" x2="810.4218" y1="245.1704" y2="282.2133" gradientUnits="userSpaceOnUse"><stop offset="0" stop-color="#048ad2"/><stop offset="1" stop-color="#38cce5"/></linearGradient></defs><path fill="url(#e)" d="M795.122 244.339c10.464-.221 20.931-.206 31.394.045l-.039 34.682.017 34.795c-8.087-5.752-17.646-15.875-24.728-23.009-4.591-4.624-6.788-6.719-6.642-12.82z" transform="matrix(1.23077 0 0 1.23124 -369.231 -158.83)"/><defs><linearGradient id="f" x1="817.7449" x2="809.9376" y1="312.2828" y2="279.0837" gradientUnits="userSpaceOnUse"><stop offset="0" stop-color="#5eeeec"/><stop offset="1" stop-color="#33c5e1"/></linearGradient></defs><path fill="url(#f)" d="M795.124 278.032c.845 1.73 1.232 2.584 2.335 4.146 7.233.454 15.402-1.637 22.617-2.668 2.043-.292 4.96-.158 6.401-.444l.017 34.795c-8.087-5.752-17.646-15.875-24.728-23.009-4.591-4.624-6.788-6.719-6.642-12.82" transform="matrix(1.23077 0 0 1.23124 -369.231 -158.83)"/><path fill="#0f3679" d="M625.252 368.1309a2614 2614 0 0 0 31.1853 17.773c.4837 24.8045.757 49.6127.821 74.4222a638 638 0 0 1-31.2407-.1945z"/><defs><linearGradient id="g" x1="856.3533" x2="848.6634" y1="283.251" y2="349.1191" gradientUnits="userSpaceOnUse"><stop offset="0" stop-color="#0f9bd4"/><stop offset="1" stop-color="#66f5ef"/></linearGradient></defs><path fill="url(#g)" d="m837.7 283.539 30.274-.099-.134 70.738c-5.735-3.615-26.153-23.136-29.933-28.496z" transform="matrix(1.23077 0 0 1.23124 -369.231 -158.83)"/><path fill="#fea201" d="M871.6313 318.6978c14.2031-.426 19.9631 7.9748 16.4308 21.5356 48.3693 51.7614 135.0647 111.4457 202.3017 134.502 11.1384 3.85 22.5477 6.9121 34.1169 9.164 5.7108 1.1045 13.5508 1.7595 18.7323 3.2517-3.5446.921-6.8308.314-10.523-.0209-71.9878-7.2384-159.151-60.8159-213.8217-107.1154-7.9139-6.7016-29.5877-23.4157-35.6677-30.579l.8369-3.0203c-2.4739-1.1525-12.357 3.0375-16.2831.7572-16.9797-9.834-10.0382-22.5539 3.877-28.4749m4.8985 21.2894c3.6308-1.3199 5.5508-5.2857 4.3446-8.9536-1.2185-3.6679-5.12-5.7093-8.8246-4.6073-2.4862.7424-4.3816 2.7838-4.9354 5.3264a7.15 7.15 0 0 0 2.277 6.8998c1.9568 1.7127 4.6891 2.2249 7.1384 1.3347M753.209 171.0635c17.3576-.5393 23.269 12.0206 15.5558 26.5923 7.8966 6.4431 34.0123 44.2927 42.176 55.0746a953.3 953.3 0 0 0 54.0074 65.9416c-2.2646 2.961-2.8061 3.743-5.803 6.1328l-1.568-.3005c-24.7914-28.9156-48.0333-55.78-70.2893-87.0893-8.064-11.3421-17.968-22.864-25.184-34.7283-22.4013 1.8998-31.76-19.8217-8.8948-31.6232m5.962 23.8947c4.6473-1.6068 7.1162-6.6746 5.5212-11.3274-1.5963-4.6541-6.6548-7.1363-11.3083-5.5492-4.6684 1.5908-7.1594 6.6733-5.5582 11.341 1.6 4.6676 6.6843 7.1485 11.3452 5.5356"/><path fill="#40cee3" d="M403.4169 257.696c11.7403-.2425 24.133-.0184 35.925.0037a1336 1336 0 0 1-.1429 31.4053c.2314 14.8475.2991 29.6987.2007 44.5475-6.5145-4.7686-30.869-27.8556-35.5902-36.2244-.2252-.4001-.1083-3.1569-.0566-3.898-.261-11.8544-.2363-23.9575-.336-35.834"/><defs><linearGradient id="h" x1="640.6306" x2="642.8151" y1="337.5483" y2="353.7578" gradientUnits="userSpaceOnUse"><stop offset="0" stop-color="#0b95d2"/><stop offset="1" stop-color="#27b8de"/></linearGradient></defs><path fill="url(#h)" d="M627.776 338.298c9.539-.197 19.608-.015 29.189.003.061 8.503.023 17.005-.116 25.507-2.102-2.52-1.441-8.152-1.349-11.606-7.367-.197-18.259 2.146-25.881 3.416.046 3.054.432 8.898-.534 11.473l-1.036.311c-.212-9.628-.192-19.458-.273-29.104" transform="matrix(1.23077 0 0 1.23124 -369.231 -158.83)"/><defs><linearGradient id="i" x1="894.2816" x2="893.418" y1="324.9424" y2="372.9116" gradientUnits="userSpaceOnUse"><stop offset="0" stop-color="#23aeda"/><stop offset="1" stop-color="#58ebe7"/></linearGradient></defs><path fill="url(#i)" d="m879.579 323.995 29.58.126c.358 10.76.001 22.936-.079 33.802-2.375 2.74-5.369 5.197-8.121 7.591-3.855 3.673-7.019 6.673-11.201 10.035l-10.056-9.937c-.246-13.709-.096-27.872-.123-41.617" transform="matrix(1.23077 0 0 1.23124 -369.231 -158.83)"/><path fill="#fea201" d="M396.0175 171.913c6.0332-1.731 12.5317-.0603 16.9821 4.3697 4.4517 4.4288 6.1588 10.9211 4.4616 16.9678-1.696 6.0478-6.5317 10.7019-12.6351 12.1658-9.1557 2.1953-18.3852-3.3305-20.7803-12.4404s2.9218-18.4661 11.9717-21.0628m8.7594 25.403c3.1717-1.3925 5.3489-4.3857 5.6972-7.8344.3495-3.4474-1.1828-6.8173-4.011-8.8181a9.604 9.604 0 0 0-9.6469-.8446c-4.7507 2.2433-6.8196 7.891-4.6436 12.6768 2.1772 4.7846 7.792 6.9319 12.6043 4.8203"/><path fill="#e6af57" d="M79.8327 476.9294c-14.9797 4.3512-28.9871 9.0915-44.6536 10.484-2.7778.2462-16.8197 1.4332-18.2856.2376 8.3077-2.045 15.9791-1.8111 24.1638-3.4056 11.04-2.151 22.096-5.5393 33.0658-8.1927z"/></g></svg>